<?xml version="1.0" encoding="iso-8859-1"?>
<!-- Uploaded to: SVG Repo, www.svgrepo.com, Generator: SVG Repo Mixer Tools -->
<svg fill="#000000" version="1.1" id="Layer_1" xmlns="http://www.w3.org/2000/svg" xmlns:xlink="http://www.w3.org/1999/xlink" 
	 viewBox="0 0 512 512" xml:space="preserve">
<g>
	<g>
		<rect x="386.844" y="466.489" width="45.511" height="45.511"/>
	</g>
</g>
<g>
	<g>
		<path d="M364.089,79.644v34.133H147.911V79.644H79.644V512h273.067v-79.644h79.644V79.644H364.089z M182.044,193.422h113.778
			v34.133H182.044V193.422z M256,432.356h-73.956v-34.133H256V432.356z M295.822,364.089H182.044v-34.133h113.778V364.089z
			 M329.956,295.822H182.044v-34.133h147.911V295.822z"/>
	</g>
</g>
<g>
	<g>
		<path d="M291.594,45.511l-1.68-15.19C288.002,13.036,273.423,0,256,0s-32.002,13.036-33.915,30.321l-1.679,15.19h-38.361v34.133
			h147.911V45.511H291.594z"/>
	</g>
</g>
</svg>